<svg width="40" height="40" viewBox="0 0 40 40" fill="none" xmlns="http://www.w3.org/2000/svg">
<mask id="mask0_1858_72" style="mask-type:alpha" maskUnits="userSpaceOnUse" x="0" y="0" width="40" height="40">
<rect width="40" height="40" fill="#D9D9D9"/>
</mask>
<g mask="url(#mask0_1858_72)">
<path d="M18.3749 35V31.4167C16.9027 31.0833 15.6319 30.4444 14.5624 29.5C13.493 28.5556 12.7083 27.2222 12.2083 25.5L15.2916 24.25C15.7083 25.5833 16.3263 26.5972 17.1458 27.2917C17.9652 27.9861 19.0416 28.3333 20.3749 28.3333C21.5138 28.3333 22.4791 28.0764 23.2708 27.5625C24.0624 27.0486 24.4583 26.25 24.4583 25.1667C24.4583 24.1944 24.1527 23.4236 23.5416 22.8542C22.9305 22.2847 21.5138 21.6389 19.2916 20.9167C16.9027 20.1667 15.2638 19.2708 14.3749 18.2292C13.486 17.1875 13.0416 15.9167 13.0416 14.4167C13.0416 12.6111 13.6249 11.2083 14.7916 10.2083C15.9583 9.20833 17.1527 8.63889 18.3749 8.5V5H21.7083V8.5C23.0971 8.72222 24.243 9.22917 25.1458 10.0208C26.0485 10.8125 26.7083 11.7778 27.1249 12.9167L24.0416 14.25C23.7083 13.3611 23.236 12.6944 22.6249 12.25C22.0138 11.8056 21.1805 11.5833 20.1249 11.5833C18.9027 11.5833 17.9721 11.8542 17.3333 12.3958C16.6944 12.9375 16.3749 13.6111 16.3749 14.4167C16.3749 15.3333 16.7916 16.0556 17.6249 16.5833C18.4583 17.1111 19.9027 17.6667 21.9583 18.25C23.8749 18.8056 25.3263 19.6875 26.3124 20.8958C27.2985 22.1042 27.7916 23.5 27.7916 25.0833C27.7916 27.0556 27.2083 28.5556 26.0416 29.5833C24.8749 30.6111 23.4305 31.25 21.7083 31.5V35H18.3749Z" fill="white"/>
</g>
</svg>
