<svg width="40" height="40" viewBox="0 0 40 40" fill="none" xmlns="http://www.w3.org/2000/svg">
<mask id="mask0_1858_76" style="mask-type:alpha" maskUnits="userSpaceOnUse" x="0" y="0" width="40" height="40">
<rect width="40" height="40" fill="#D9D9D9"/>
</mask>
<g mask="url(#mask0_1858_76)">
<path d="M28.5833 34.5L18.5 24.3333C17.9444 24.5556 17.3819 24.7222 16.8125 24.8333C16.2431 24.9444 15.6389 25 15 25C12.2222 25 9.86111 24.0278 7.91667 22.0833C5.97222 20.1389 5 17.7778 5 15C5 14 5.13889 13.0486 5.41667 12.1458C5.69444 11.2431 6.08333 10.3889 6.58333 9.58333L12.6667 15.6667L15.6667 12.6667L9.58333 6.58333C10.3889 6.08333 11.2431 5.69444 12.1458 5.41667C13.0486 5.13889 14 5 15 5C17.7778 5 20.1389 5.97222 22.0833 7.91667C24.0278 9.86111 25 12.2222 25 15C25 15.6389 24.9444 16.2431 24.8333 16.8125C24.7222 17.3819 24.5556 17.9444 24.3333 18.5L34.5 28.5833C34.8333 28.9167 35 29.3194 35 29.7917C35 30.2639 34.8333 30.6667 34.5 31L31 34.5C30.6667 34.8333 30.2639 35 29.7917 35C29.3194 35 28.9167 34.8333 28.5833 34.5Z" fill="white"/>
</g>
</svg>
