<svg width="221" height="221" viewBox="0 0 221 221" fill="none" xmlns="http://www.w3.org/2000/svg">
<mask id="mask0_2410_13" style="mask-type:alpha" maskUnits="userSpaceOnUse" x="0" y="0" width="221" height="221">
<rect x="0.240234" y="0.839844" width="220" height="220" fill="#D9D9D9"/>
</mask>
<g mask="url(#mask0_2410_13)">
<path d="M77.2402 156.673L110.24 123.673L143.24 156.673L156.073 143.84L123.073 110.84L156.073 77.8395L143.24 65.0062L110.24 98.0062L77.2402 65.0062L64.4068 77.8395L97.4068 110.84L64.4068 143.84L77.2402 156.673ZM110.24 202.506C97.5596 202.506 85.6429 200.1 74.4902 195.287C63.3374 190.475 53.636 183.944 45.386 175.694C37.136 167.444 30.6047 157.742 25.7922 146.59C20.9797 135.437 18.5735 123.52 18.5735 110.84C18.5735 98.159 20.9797 86.2423 25.7922 75.0895C30.6047 63.9367 37.136 54.2354 45.386 45.9854C53.636 37.7354 63.3374 31.2041 74.4902 26.3916C85.6429 21.5791 97.5596 19.1729 110.24 19.1729C122.921 19.1729 134.837 21.5791 145.99 26.3916C157.143 31.2041 166.844 37.7354 175.094 45.9854C183.344 54.2354 189.876 63.9367 194.688 75.0895C199.501 86.2423 201.907 98.159 201.907 110.84C201.907 123.52 199.501 135.437 194.688 146.59C189.876 157.742 183.344 167.444 175.094 175.694C166.844 183.944 157.143 190.475 145.99 195.287C134.837 200.1 122.921 202.506 110.24 202.506Z" fill="#FF0000"/>
</g>
</svg>
