<svg id="Logo" xmlns="http://www.w3.org/2000/svg" width="1080" height="1080" viewBox="0 0 1080 1080">
  <defs>
    <style>
      .cls-1 {
        fill: #fff;
        fill-rule: evenodd;
      }
    </style>
  </defs>
  <path id="Forma_1" data-name="Forma 1" class="cls-1" d="M226.271,453.55c-3.986-2.186-4.639-10.006-2.367-23.675,2.819-16.965,11.234-34.714,14.2-40.247,4.933-9.189,9.6-18.527,14.2-28.41a300.469,300.469,0,0,1,18.94-40.247c10.63-18.839,21.523-34.291,33.145-47.35,15.984-17.962,36.488-35.3,63.922-52.085A317.708,317.708,0,0,1,399.1,204.964a589.247,589.247,0,0,1,73.392-23.675c14.936-3.759,29.789-6.886,44.982-9.47A341.48,341.48,0,0,1,704.5,202.6a248.546,248.546,0,0,1,63.922,42.615,217.666,217.666,0,0,1,24.62,26.136,185.268,185.268,0,0,1,18,28.316c3.3,6.395,7.974,18.073,11.838,28.41,3.708,9.92,7.347,20.494,9.47,28.41,1.4,5.223,3.214,13.912,4.735,21.307,2.091,10.172,4.175,20.911,4.735,28.41,0.683,9.165.193,16.836,0,26.042-0.076,3.6,0,14.11,0,21.308v108.9a98.944,98.944,0,0,0,7.1,28.41c3.767,8.965,12.414,21.541,16.572,35.512,0.935,3.141,1.72,6.282,2.368,9.47a11.824,11.824,0,0,1-7.1,4.735c-1.547.308-5.364,0.034-9.47-2.367a28.2,28.2,0,0,1-9.469-9.47,71.618,71.618,0,0,1-7.1-14.205,168.762,168.762,0,0,1-16.572-59.187c-3.536-39.025-7.663-88.117-7.1-108.9,0.3-11.29.434-21.65,0-33.145a322.208,322.208,0,0,0-4.735-44.982c-2.872-16.063-6.815-29.556-11.837-40.247a136.741,136.741,0,0,0-14.2-23.675,175.113,175.113,0,0,0-92.332-75.759,360.235,360.235,0,0,0-168.092-30.778,373.944,373.944,0,0,0-99.434,21.308A256.7,256.7,0,0,0,273.621,373.055,237.42,237.42,0,0,0,261.783,406.2c-4.107,15.02-7.233,31.914-21.307,42.615C235.106,452.9,229.689,455.424,226.271,453.55Z"/>
  <path id="Forma_2" data-name="Forma 2" class="cls-1" d="M212.066,531.677a13.592,13.592,0,0,1,4.735-7.1,13.955,13.955,0,0,1,11.838-2.367,115.316,115.316,0,0,0,44.982-4.735,114.237,114.237,0,0,0,54.452-80.495A175.725,175.725,0,0,1,425.14,304.4a212.337,212.337,0,0,1,106.537-30.777A343.228,343.228,0,0,1,661.889,304.4a136.08,136.08,0,0,1,78.127,78.127,355.6,355.6,0,0,1,11.837,40.247,133,133,0,0,1,2.368,14.2,122.882,122.882,0,0,1,0,26.043c0.563,16.621.562,32.986,0,49.717-0.374,11.123-1.4,26.529-2.368,40.247q-1.167,16.6-2.367,33.145a328.6,328.6,0,0,0,4.735,40.247q2.813,15.57,7.1,30.778Q773.161,670.174,785,683.2l33.145,23.675a22.445,22.445,0,0,1,9.47,14.205,20.388,20.388,0,0,1,0,7.1,14.3,14.3,0,0,1-18.94,7.1L785,716.341l-35.512-35.513a75.226,75.226,0,0,1-26.043-42.614,365.293,365.293,0,0,1-4.735-85.23c0.825-15.8,1.612-31.543,2.368-47.35,0.831-17.385,1.618-34.695,2.367-52.084,2.456-26.728-2.087-52.792-14.2-75.76a125.567,125.567,0,0,0-14.205-21.307A185.83,185.83,0,0,0,595.6,306.766a207.966,207.966,0,0,0-130.212,7.1,205.088,205.088,0,0,0-80.494,59.187,209.413,209.413,0,0,0-35.513,75.76,310.082,310.082,0,0,1-9.47,35.512c-2.148,6.486-4.723,13.856-6.606,18.054a121.819,121.819,0,0,1-14.7,24.561,80.955,80.955,0,0,1-40.247,26.042,97.548,97.548,0,0,1-52.085-2.367A22.769,22.769,0,0,1,212.066,531.677Z"/>
  <path id="Forma_3" data-name="Forma 3" class="cls-1" d="M221.536,635.846a16.427,16.427,0,0,1,16.572-14.205A131.291,131.291,0,0,0,304.4,609.8a120.093,120.093,0,0,0,56.82-28.41A178.608,178.608,0,0,0,413.3,500.9a266.05,266.05,0,0,1,52.085-94.7,118.166,118.166,0,0,1,68.657-40.247,118.23,118.23,0,0,1,82.862,30.777,124.51,124.51,0,0,1,35.513,59.187,103.542,103.542,0,0,1,7.1,49.717,131.415,131.415,0,0,1-4.735,56.82,198.948,198.948,0,0,1-28.41,71.025c-4.549,6.514-9.225,12.749-14.2,18.94-4.593,5.71-9.263,11.159-14.205,16.572L569.557,697.4l-26.043,23.675-30.777,21.307L481.96,763.69,448.815,785c-5.558,2.344-11.042,4.694-16.573,7.1-7.158,3.118-14.2,6.246-21.307,9.47-7.838,2.686-15.654,5.031-23.675,7.1-7.092,1.832-14.106,3.391-21.307,4.735a26.994,26.994,0,0,1-23.675-4.735,12.75,12.75,0,0,1,7.1-16.573l23.675-11.837L406.2,763.69l47.35-23.674,37.88-18.94A322.58,322.58,0,0,0,524.574,697.4q12.365-10.068,23.675-21.308a259.884,259.884,0,0,0,44.982-59.187c3.43-6.2,6.562-12.466,9.47-18.94a309.5,309.5,0,0,0,26.043-92.332c-0.158-6.416-.159-12.633,0-18.939,0.172-6.828.675-12.426,0-18.94-1.5-14.476-7.349-27.884-16.573-40.248a104.7,104.7,0,0,0-75.759-42.614,96.36,96.36,0,0,0-59.187,40.247,300.793,300.793,0,0,0-35.513,87.6,299.615,299.615,0,0,1-28.41,66.29,84.758,84.758,0,0,1-42.614,37.879c-9.3,4.4-18.741,8.333-28.41,11.838q-15.159,5.495-30.777,9.47a277.385,277.385,0,0,1-78.128,7.1A12.344,12.344,0,0,1,221.536,635.846Z"/>
  <path id="Forma_4" data-name="Forma 4" class="cls-1" d="M261.783,728.178a8.407,8.407,0,0,1,0-7.1,8.494,8.494,0,0,1,7.1-4.735c6.248-2.63,12.5-4.976,18.94-7.1a255.216,255.216,0,0,1,26.042-7.1A401.143,401.143,0,0,0,356.483,690.3c10.461-3.537,20.638-7.451,30.777-11.837a163.923,163.923,0,0,0,75.76-59.187,246.277,246.277,0,0,0,37.879-66.29,320.967,320.967,0,0,0,23.675-63.922q3.552-10.653,7.1-21.307a15.457,15.457,0,0,1,4.735-4.735,15.715,15.715,0,0,1,9.47-2.368,12.691,12.691,0,0,1,9.47,14.205,44.6,44.6,0,0,1-2.368,18.94,43.815,43.815,0,0,1-4.735,9.47,202.242,202.242,0,0,1-16.572,52.085q-4.736,10.653-9.47,21.307t-9.47,21.307q-9.469,15.39-18.94,30.778c-4.023,4.721-7.919,9.4-11.837,14.2-3.21,3.938-6.333,7.842-9.47,11.837A216.326,216.326,0,0,1,432.242,690.3l-28.409,16.573-37.88,16.572c-9.415,2.761-18.8,5.108-28.41,7.1-9.45,1.962-18.834,3.526-28.41,4.735a133.98,133.98,0,0,1-33.145,2.367A12.689,12.689,0,0,1,261.783,728.178Z"/>
  <path id="Forma_5" data-name="Forma 5" class="cls-1" d="M664.256,692.666a15.43,15.43,0,0,1,16.572,0l21.308,30.777q5.42,10.952,11.837,21.308c3.018,4.87,6.134,9.545,9.47,14.205a85.805,85.805,0,0,0,26.043,21.307L766.058,792.1a11.84,11.84,0,0,1,0,14.2,14.666,14.666,0,0,1-18.94,2.368c-7.246-3.827-14.231-7.707-21.307-11.838-4-2.335-7.894-4.671-11.838-7.1l-7.1-7.1L690.3,766.058l-14.205-23.675a46.887,46.887,0,0,1-11.837-21.307q-2.367-7.1-4.735-14.205A34.533,34.533,0,0,1,664.256,692.666Z"/>
  <path id="Forma_6" data-name="Forma 6" class="cls-1" d="M436.977,867.86a11.84,11.84,0,0,1,0-14.205,53.608,53.608,0,0,1,18.94-18.94c6.3-3.32,12.506-6.425,18.94-9.47,7.082-3.352,14.073-6.459,21.308-9.47a240.355,240.355,0,0,1,75.759-26.042,152.574,152.574,0,0,1,49.717,9.47l37.88,23.675,23.675,18.94a15.489,15.489,0,0,1,4.735,11.837,14.708,14.708,0,0,1-2.368,7.1,11.837,11.837,0,0,1-18.939,0l-26.043-18.939a105.318,105.318,0,0,0-52.085-18.94,110.3,110.3,0,0,0-61.554,14.2A177.578,177.578,0,0,0,481.96,858.39l-28.41,11.837A26.477,26.477,0,0,1,436.977,867.86Z"/>
  <path id="Forma_7" data-name="Forma 7" class="cls-1" d="M574.292,879.7c5.587,0.615,11.038,1.394,16.572,2.368,4,0.7,7.878,1.479,11.837,2.367a8.5,8.5,0,0,1,7.1,4.735,8.406,8.406,0,0,1,0,7.1q-2.368,3.55-4.735,7.1a61.963,61.963,0,0,1-28.41,7.1,63.164,63.164,0,0,1-26.042-7.1,12.344,12.344,0,0,1-9.47-11.837l2.367-7.1A49.237,49.237,0,0,1,574.292,879.7Z"/>
</svg>
