<svg id="Logo" xmlns="http://www.w3.org/2000/svg" width="1080" height="1080" viewBox="0 0 1080 1080">
  <defs>
    <style>
      .cls-1 {
        fill: #fff;
        fill-rule: evenodd;
      }
    </style>
  </defs>
  <path id="Forma_1" data-name="Forma 1" class="cls-1" d="M407.047,411.016c-1.684-.924-1.96-4.227-1-10a62.992,62.992,0,0,1,6-17c2.083-3.882,4.053-7.826,6-12a126.85,126.85,0,0,1,8-17,113.97,113.97,0,0,1,14-20c6.751-7.587,15.412-14.911,27-22a134.165,134.165,0,0,1,13-7,248.815,248.815,0,0,1,31-10c6.309-1.588,12.582-2.909,19-4a144.236,144.236,0,0,1,79,13,104.971,104.971,0,0,1,27,18,91.967,91.967,0,0,1,10.4,11.039,78.309,78.309,0,0,1,7.6,11.961c1.394,2.7,3.368,7.634,5,12,1.566,4.19,3.1,8.656,4,12,0.592,2.206,1.358,5.876,2,9a108.433,108.433,0,0,1,2,12,109.078,109.078,0,0,1,0,11c-0.032,1.519,0,5.96,0,9v46a41.81,41.81,0,0,0,3,12c1.591,3.786,5.243,9.1,7,15,0.395,1.326.726,2.653,1,4a5,5,0,0,1-3,2,6.473,6.473,0,0,1-4-1,11.917,11.917,0,0,1-4-4,30.281,30.281,0,0,1-3-6,71.288,71.288,0,0,1-7-25c-1.494-16.484-3.237-37.22-3-46,0.128-4.769.183-9.145,0-14a136.083,136.083,0,0,0-2-19,69.071,69.071,0,0,0-5-17,57.775,57.775,0,0,0-6-10,73.97,73.97,0,0,0-39-32,152.162,152.162,0,0,0-71-13,157.94,157.94,0,0,0-42,9,108.426,108.426,0,0,0-62,65,100.239,100.239,0,0,0-5,14c-1.735,6.344-3.056,13.48-9,18C410.779,410.74,408.491,411.807,407.047,411.016Z"/>
  <path id="Forma_2" data-name="Forma 2" class="cls-1" d="M401.047,444.016a5.735,5.735,0,0,1,2-3,5.892,5.892,0,0,1,5-1,48.708,48.708,0,0,0,19-2,48.252,48.252,0,0,0,23-34,74.225,74.225,0,0,1,41-56,89.685,89.685,0,0,1,45-13,144.969,144.969,0,0,1,55,13,57.478,57.478,0,0,1,33,33,150.155,150.155,0,0,1,5,17,56.058,56.058,0,0,1,1,6,51.856,51.856,0,0,1,0,11c0.238,7.02.237,13.933,0,21-0.158,4.7-.593,11.2-1,17q-0.494,7.01-1,14a138.835,138.835,0,0,0,2,17q1.188,6.576,3,13l10,11,14,10a9.482,9.482,0,0,1,4,6,8.613,8.613,0,0,1,0,3,6.042,6.042,0,0,1-8,3l-10-8-15-15a31.779,31.779,0,0,1-11-18,154.293,154.293,0,0,1-2-36c0.348-6.675.68-13.324,1-20,0.351-7.344.683-14.655,1-22a56.894,56.894,0,0,0-6-32,53.061,53.061,0,0,0-6-9,78.5,78.5,0,0,0-42-21,87.845,87.845,0,0,0-55,3,86.629,86.629,0,0,0-34,25,88.453,88.453,0,0,0-15,32,131.059,131.059,0,0,1-4,15c-0.908,2.739-2,5.852-2.791,7.625a51.415,51.415,0,0,1-6.209,10.375,34.192,34.192,0,0,1-17,11,41.206,41.206,0,0,1-22-1A9.616,9.616,0,0,1,401.047,444.016Z"/>
  <path id="Forma_3" data-name="Forma 3" class="cls-1" d="M405.047,488.016a6.939,6.939,0,0,1,7-6,55.458,55.458,0,0,0,28-5,50.721,50.721,0,0,0,24-12,75.445,75.445,0,0,0,22-34,112.378,112.378,0,0,1,22-40,49.908,49.908,0,0,1,29-17,49.94,49.94,0,0,1,35,13,52.6,52.6,0,0,1,15,25,43.732,43.732,0,0,1,3,21,55.509,55.509,0,0,1-2,24,84.028,84.028,0,0,1-12,30c-1.922,2.751-3.9,5.385-6,8-1.94,2.412-3.913,4.713-6,7l-12,12-11,10-13,9-13,9-14,9c-2.348.99-4.664,1.982-7,3-3.024,1.316-6,2.638-9,4-3.311,1.134-6.612,2.124-10,3-3,.773-5.959,1.432-9,2a11.4,11.4,0,0,1-10-2,5.385,5.385,0,0,1,3-7l10-5,14-7,20-10,16-8a136.286,136.286,0,0,0,14-10q5.221-4.254,10-9a109.828,109.828,0,0,0,19-25c1.448-2.62,2.771-5.266,4-8a130.742,130.742,0,0,0,11-39c-0.067-2.711-.067-5.336,0-8a59.815,59.815,0,0,0,0-8,34.189,34.189,0,0,0-7-17,44.226,44.226,0,0,0-32-18,40.7,40.7,0,0,0-25,17,127.056,127.056,0,0,0-15,37,126.58,126.58,0,0,1-12,28,35.8,35.8,0,0,1-18,16c-3.927,1.857-7.916,3.519-12,5q-6.4,2.32-13,4a117.154,117.154,0,0,1-33,3A5.215,5.215,0,0,1,405.047,488.016Z"/>
  <path id="Forma_4" data-name="Forma 4" class="cls-1" d="M422.047,527.016a3.5,3.5,0,0,1,3-5c2.639-1.111,5.282-2.1,8-3a107.67,107.67,0,0,1,11-3,169.652,169.652,0,0,0,18-5c4.418-1.494,8.717-3.148,13-5a69.238,69.238,0,0,0,32-25,104.051,104.051,0,0,0,16-28,135.567,135.567,0,0,0,10-27l3-9a6.524,6.524,0,0,1,2-2,6.633,6.633,0,0,1,4-1,5.36,5.36,0,0,1,4,6,18.839,18.839,0,0,1-1,8,18.517,18.517,0,0,1-2,4,85.435,85.435,0,0,1-7,22l-4,9-4,9-8,13c-1.7,1.994-3.345,3.969-5,6-1.356,1.663-2.675,3.312-4,5a91.392,91.392,0,0,1-17,15l-12,7-16,7c-3.977,1.166-7.943,2.157-12,3-3.992.828-7.956,1.489-12,2a56.58,56.58,0,0,1-14,1A5.36,5.36,0,0,1,422.047,527.016Z"/>
  <path id="Forma_5" data-name="Forma 5" class="cls-1" d="M592.047,512.016a6.519,6.519,0,0,1,7,0l9,13q2.289,4.625,5,9c1.274,2.057,2.591,4.031,4,6a36.235,36.235,0,0,0,11,9l7,5a5,5,0,0,1,0,6,6.194,6.194,0,0,1-8,1c-3.061-1.617-6.011-3.256-9-5-1.69-.987-3.334-1.973-5-3l-3-3-7-7-6-10a19.8,19.8,0,0,1-5-9q-1-3-2-6a14.621,14.621,0,0,1,1-4A14.411,14.411,0,0,1,592.047,512.016Z"/>
  <path id="Forma_6" data-name="Forma 6" class="cls-1" d="M496.047,586.016a5,5,0,0,1,0-6,22.638,22.638,0,0,1,8-8c2.659-1.4,5.282-2.714,8-4,2.991-1.416,5.944-2.729,9-4a101.523,101.523,0,0,1,32-11,64.462,64.462,0,0,1,21,4l16,10,10,8a6.543,6.543,0,0,1,2,5,6.22,6.22,0,0,1-1,3,5,5,0,0,1-8,0l-11-8a44.485,44.485,0,0,0-22-8,46.594,46.594,0,0,0-26,6,75.024,75.024,0,0,0-19,9l-12,5A11.18,11.18,0,0,1,496.047,586.016Z"/>
  <path id="Forma_7" data-name="Forma 7" class="cls-1" d="M554.047,591.016c2.36,0.259,4.662.588,7,1,1.688,0.3,3.328.625,5,1a3.5,3.5,0,0,1,3,5l-2,3a26.167,26.167,0,0,1-12,3,26.677,26.677,0,0,1-11-3,5.215,5.215,0,0,1-4-5q0.5-1.5,1-3A20.8,20.8,0,0,1,554.047,591.016Z"/>
  <path id="Forma_8" data-name="Forma 8" class="cls-1" d="M326.047,664.016v116l86,1v-23h-58v-22h45v-26h-46v-20h58v-26h-85Z"/>
  <path id="Forma_9" data-name="Forma 9" class="cls-1" d="M457.047,664.016h28v93h58v23h-86v-116Z"/>
  <path id="Forma_10" data-name="Forma 10" class="cls-1" d="M585.047,780.016h27v-45h49v-25h-47v-19h57v-27h-86v116Z"/>
  <path id="Forma_11" data-name="Forma 11" class="cls-1" d="M718.047,782.016h27v-118h-27v118Z"/>
  <path id="Forma_12" data-name="Forma 12" class="cls-1" d="M788.047,664.016h32l21,31,22-30h29l-36,54,40,60h-34l-21-33-24,33h-33l39-59Q805.546,692.016,788.047,664.016Z"/>
  <path id="Forma_13" data-name="Forma 13" class="cls-1" d="M279.047,666.016c-22.082-9.606-47.544-7.646-67,6a67.992,67.992,0,0,0-28,47c-1,20.643,7.422,41.1,24,54,19.833,15.427,48.332,17.464,72,4v-24c-30.145,8.1-54.2.789-63-14a30.475,30.475,0,0,1-4-16c-0.486-8.043,1.116-15.23,5-21,9.742-14.475,34.091-20.5,61-10v-26Z"/>
</svg>
