<svg id="Logo" xmlns="http://www.w3.org/2000/svg" width="1080" height="1080" viewBox="0 0 1080 1080">
  <defs>
    <style>
      .cls-1 {
        fill: #fff;
        fill-rule: evenodd;
      }
    </style>
  </defs>
  <path id="Forma_1" data-name="Forma 1" class="cls-1" d="M74.21,503.5c-1.684-.923-1.96-4.226-1-10a63,63,0,0,1,6-17c2.084-3.881,4.053-7.825,6-12a126.958,126.958,0,0,1,8-17,113.959,113.959,0,0,1,14-20c6.752-7.587,15.412-14.91,27-22a134.165,134.165,0,0,1,13-7,248.923,248.923,0,0,1,31-10c6.309-1.588,12.583-2.909,19-4a144.236,144.236,0,0,1,79,13,104.963,104.963,0,0,1,27,18,91.814,91.814,0,0,1,10.4,11.04,78.146,78.146,0,0,1,7.6,11.96c1.4,2.7,3.368,7.634,5,12,1.566,4.19,3.1,8.656,4,12,0.592,2.206,1.358,5.876,2,9a108.2,108.2,0,0,1,2,12,108.785,108.785,0,0,1,0,11c-0.032,1.52,0,5.96,0,9v46a41.81,41.81,0,0,0,3,12c1.591,3.787,5.244,9.1,7,15,0.4,1.327.727,2.653,1,4a4.993,4.993,0,0,1-3,2,6.474,6.474,0,0,1-4-1,11.917,11.917,0,0,1-4-4,30.335,30.335,0,0,1-3-6,71.288,71.288,0,0,1-7-25c-1.493-16.484-3.236-37.22-3-46,0.129-4.769.184-9.145,0-14a136.083,136.083,0,0,0-2-19,69.084,69.084,0,0,0-5-17,57.687,57.687,0,0,0-6-10,73.97,73.97,0,0,0-39-32,152.162,152.162,0,0,0-71-13,157.94,157.94,0,0,0-42,9,108.424,108.424,0,0,0-62,65,100.252,100.252,0,0,0-5,14c-1.735,6.344-3.056,13.48-9,18C77.942,503.225,75.654,504.293,74.21,503.5Z"/>
  <path id="Forma_2" data-name="Forma 2" class="cls-1" d="M68.21,536.5a5.737,5.737,0,0,1,2-3,5.893,5.893,0,0,1,5-1,48.708,48.708,0,0,0,19-2,48.252,48.252,0,0,0,23-34,74.225,74.225,0,0,1,41-56,89.685,89.685,0,0,1,45-13,144.969,144.969,0,0,1,55,13,57.478,57.478,0,0,1,33,33,150.009,150.009,0,0,1,5,17,56.058,56.058,0,0,1,1,6,51.856,51.856,0,0,1,0,11c0.238,7.02.238,13.933,0,21-0.158,4.7-.592,11.205-1,17q-0.492,7.011-1,14a139.03,139.03,0,0,0,2,17q1.188,6.576,3,13l10,11,14,10a9.478,9.478,0,0,1,4,6,8.613,8.613,0,0,1,0,3,6.042,6.042,0,0,1-8,3l-10-8-15-15a31.779,31.779,0,0,1-11-18,154.293,154.293,0,0,1-2-36c0.348-6.675.681-13.324,1-20,0.352-7.344.684-14.655,1-22a56.877,56.877,0,0,0-6-32,53,53,0,0,0-6-9,78.5,78.5,0,0,0-42-21,87.845,87.845,0,0,0-55,3,86.629,86.629,0,0,0-34,25,88.453,88.453,0,0,0-15,32,131,131,0,0,1-4,15c-0.907,2.74-1.995,5.852-2.79,7.626a51.485,51.485,0,0,1-6.21,10.374,34.193,34.193,0,0,1-17,11,41.206,41.206,0,0,1-22-1A9.616,9.616,0,0,1,68.21,536.5Z"/>
  <path id="Forma_3" data-name="Forma 3" class="cls-1" d="M72.21,580.5a6.939,6.939,0,0,1,7-6,55.456,55.456,0,0,0,28-5,50.721,50.721,0,0,0,24-12,75.445,75.445,0,0,0,22-34,112.378,112.378,0,0,1,22-40,49.908,49.908,0,0,1,29-17,49.94,49.94,0,0,1,35,13,52.6,52.6,0,0,1,15,25,43.732,43.732,0,0,1,3,21,55.509,55.509,0,0,1-2,24,84.028,84.028,0,0,1-12,30c-1.921,2.751-3.9,5.385-6,8-1.94,2.412-3.913,4.714-6,7l-12,12-11,10-13,9-13,9-14,9c-2.347.99-4.664,1.983-7,3-3.023,1.317-6,2.638-9,4-3.311,1.134-6.612,2.125-10,3-3,.774-5.958,1.432-9,2a11.4,11.4,0,0,1-10-2,5.385,5.385,0,0,1,3-7l10-5,14-7,20-10,16-8a136.286,136.286,0,0,0,14-10q5.223-4.252,10-9a109.777,109.777,0,0,0,19-25c1.449-2.619,2.772-5.266,4-8a130.742,130.742,0,0,0,11-39c-0.066-2.711-.067-5.336,0-8a59.648,59.648,0,0,0,0-8,34.183,34.183,0,0,0-7-17,44.226,44.226,0,0,0-32-18,40.7,40.7,0,0,0-25,17,127.056,127.056,0,0,0-15,37,126.58,126.58,0,0,1-12,28,35.8,35.8,0,0,1-18,16c-3.927,1.858-7.916,3.52-12,5q-6.4,2.321-13,4a117.151,117.151,0,0,1-33,3A5.215,5.215,0,0,1,72.21,580.5Z"/>
  <path id="Forma_4" data-name="Forma 4" class="cls-1" d="M89.21,619.5a3.55,3.55,0,0,1,0-3,3.589,3.589,0,0,1,3-2c2.639-1.111,5.282-2.1,8-3a107.67,107.67,0,0,1,11-3,169.414,169.414,0,0,0,18-5c4.419-1.494,8.718-3.148,13-5a69.238,69.238,0,0,0,32-25,104.051,104.051,0,0,0,16-28,135.567,135.567,0,0,0,10-27l3-9a6.535,6.535,0,0,1,2-2,6.634,6.634,0,0,1,4-1,5.36,5.36,0,0,1,4,6,18.823,18.823,0,0,1-1,8,18.517,18.517,0,0,1-2,4,85.435,85.435,0,0,1-7,22q-2,4.5-4,9t-4,9l-8,13c-1.7,1.994-3.345,3.969-5,6-1.355,1.663-2.674,3.312-4,5a91.392,91.392,0,0,1-17,15l-12,7-16,7c-3.976,1.166-7.942,2.157-12,3-3.991.829-7.955,1.489-12,2a56.578,56.578,0,0,1-14,1A5.36,5.36,0,0,1,89.21,619.5Z"/>
  <path id="Forma_5" data-name="Forma 5" class="cls-1" d="M259.21,604.5a6.519,6.519,0,0,1,7,0l9,13q2.289,4.626,5,9c1.275,2.057,2.591,4.032,4,6a36.235,36.235,0,0,0,11,9l7,5a5,5,0,0,1,0,6,6.194,6.194,0,0,1-8,1c-3.061-1.616-6.011-3.255-9-5-1.69-.987-3.334-1.973-5-3l-3-3q-3.5-3.5-7-7l-6-10a19.8,19.8,0,0,1-5-9q-1-3-2-6A14.577,14.577,0,0,1,259.21,604.5Z"/>
  <path id="Forma_6" data-name="Forma 6" class="cls-1" d="M163.21,678.5a5,5,0,0,1,0-6,22.638,22.638,0,0,1,8-8c2.66-1.4,5.283-2.714,8-4,2.992-1.416,5.945-2.728,9-4a101.523,101.523,0,0,1,32-11,64.462,64.462,0,0,1,21,4l16,10,10,8a6.543,6.543,0,0,1,2,5,6.216,6.216,0,0,1-1,3,5,5,0,0,1-8,0l-11-8a44.485,44.485,0,0,0-22-8,46.594,46.594,0,0,0-26,6,75.024,75.024,0,0,0-19,9l-12,5A11.18,11.18,0,0,1,163.21,678.5Z"/>
  <path id="Forma_7" data-name="Forma 7" class="cls-1" d="M221.21,683.5c2.36,0.26,4.663.589,7,1,1.688,0.3,3.328.625,5,1a3.589,3.589,0,0,1,3,2,3.548,3.548,0,0,1,0,3l-2,3a26.167,26.167,0,0,1-12,3,26.677,26.677,0,0,1-11-3,5.215,5.215,0,0,1-4-5q0.5-1.5,1-3A20.8,20.8,0,0,1,221.21,683.5Z"/>
  <path id="Forma_8" data-name="Forma 8" class="cls-1" d="M509.747,488.469V590.641l75.747,0.88V571.263H534.409V551.886h39.635v-22.9H533.528V511.37h51.086v-22.9H509.747Z"/>
  <path id="Forma_9" data-name="Forma 9" class="cls-1" d="M625.13,488.469h24.662v81.914h51.086v20.258H625.13V488.469Z"/>
  <path id="Forma_10" data-name="Forma 10" class="cls-1" d="M737.871,590.641h23.781V551.005h43.159v-22.02h-41.4V512.25h50.205V488.469H737.871V590.641Z"/>
  <path id="Forma_11" data-name="Forma 11" class="cls-1" d="M855.016,592.4H878.8V488.469H855.016V592.4Z"/>
  <path id="Forma_12" data-name="Forma 12" class="cls-1" d="M916.671,488.469h28.186l18.5,27.305,19.378-26.424h25.539q-15.849,23.781-31.7,47.563L1011.8,589.76H981.85l-18.5-29.066L942.214,589.76H913.148q17.175-25.983,34.351-51.967Z"/>
  <path id="Forma_13" data-name="Forma 13" class="cls-1" d="M468.349,490.231c-19.449-8.461-41.876-6.734-59.012,5.284a59.893,59.893,0,0,0-24.663,41.4c-0.884,18.182,6.537,36.2,21.139,47.562,17.469,13.588,42.57,15.383,63.417,3.523V566.859c-26.551,7.136-47.74.695-55.489-12.331a26.841,26.841,0,0,1-3.524-14.092c-0.428-7.084.983-13.414,4.4-18.5,8.581-12.749,30.027-18.056,53.728-8.808v-22.9Z"/>
</svg>
