<svg width="220" height="220" viewBox="0 0 220 220" fill="none" xmlns="http://www.w3.org/2000/svg">
<mask id="mask0_2124_175" style="mask-type:alpha" maskUnits="userSpaceOnUse" x="0" y="0" width="220" height="220">
<rect width="220" height="220" fill="#D9D9D9"/>
</mask>
<g mask="url(#mask0_2124_175)">
<path d="M97.1673 152.169L161.792 87.5443L148.959 74.7109L97.1673 126.503L71.0423 100.378L58.209 113.211L97.1673 152.169ZM110.001 201.669C97.3201 201.669 85.4034 199.263 74.2506 194.451C63.0979 189.638 53.3965 183.107 45.1465 174.857C36.8965 166.607 30.3652 156.905 25.5527 145.753C20.7402 134.6 18.334 122.683 18.334 110.003C18.334 97.322 20.7402 85.4054 25.5527 74.2526C30.3652 63.0998 36.8965 53.3984 45.1465 45.1484C53.3965 36.8984 63.0979 30.3672 74.2506 25.5547C85.4034 20.7422 97.3201 18.3359 110.001 18.3359C122.681 18.3359 134.598 20.7422 145.751 25.5547C156.903 30.3672 166.605 36.8984 174.855 45.1484C183.105 53.3984 189.636 63.0998 194.449 74.2526C199.261 85.4054 201.667 97.322 201.667 110.003C201.667 122.683 199.261 134.6 194.449 145.753C189.636 156.905 183.105 166.607 174.855 174.857C166.605 183.107 156.903 189.638 145.751 194.451C134.598 199.263 122.681 201.669 110.001 201.669Z" fill="#00A323"/>
</g>
</svg>
