<svg width="40" height="40" viewBox="0 0 40 40" fill="none" xmlns="http://www.w3.org/2000/svg">
<mask id="mask0_2086_83" style="mask-type:alpha" maskUnits="userSpaceOnUse" x="0" y="0" width="40" height="40">
<rect width="40" height="40" fill="#D9D9D9"/>
</mask>
<g mask="url(#mask0_2086_83)">
<path d="M17.6667 27.6673L29.4167 15.9173L27.0833 13.584L17.6667 23.0007L12.9167 18.2507L10.5833 20.584L17.6667 27.6673ZM20 36.6673C17.6945 36.6673 15.5278 36.2298 13.5 35.3548C11.4722 34.4798 9.70834 33.2923 8.20834 31.7923C6.70834 30.2923 5.52084 28.5284 4.64584 26.5007C3.77084 24.4729 3.33334 22.3062 3.33334 20.0007C3.33334 17.6951 3.77084 15.5284 4.64584 13.5007C5.52084 11.4729 6.70834 9.70898 8.20834 8.20898C9.70834 6.70898 11.4722 5.52148 13.5 4.64648C15.5278 3.77148 17.6945 3.33398 20 3.33398C22.3056 3.33398 24.4722 3.77148 26.5 4.64648C28.5278 5.52148 30.2917 6.70898 31.7917 8.20898C33.2917 9.70898 34.4792 11.4729 35.3542 13.5007C36.2292 15.5284 36.6667 17.6951 36.6667 20.0007C36.6667 22.3062 36.2292 24.4729 35.3542 26.5007C34.4792 28.5284 33.2917 30.2923 31.7917 31.7923C30.2917 33.2923 28.5278 34.4798 26.5 35.3548C24.4722 36.2298 22.3056 36.6673 20 36.6673Z" fill="white"/>
</g>
</svg>
