<svg width="40" height="40" viewBox="0 0 40 40" fill="none" xmlns="http://www.w3.org/2000/svg">
<mask id="mask0_2086_71" style="mask-type:alpha" maskUnits="userSpaceOnUse" x="0" y="0" width="40" height="40">
<rect width="40" height="40" fill="#D9D9D9"/>
</mask>
<g mask="url(#mask0_2086_71)">
<path d="M8.33331 35C6.94442 35 5.76387 34.5139 4.79165 33.5417C3.81942 32.5694 3.33331 31.3889 3.33331 30C3.33331 28.6111 3.81942 27.4306 4.79165 26.4583C5.76387 25.4861 6.94442 25 8.33331 25H31.6666C33.0555 25 34.2361 25.4861 35.2083 26.4583C36.1805 27.4306 36.6666 28.6111 36.6666 30C36.6666 31.3889 36.1805 32.5694 35.2083 33.5417C34.2361 34.5139 33.0555 35 31.6666 35H8.33331ZM8.33331 31.6667H31.6666C32.1389 31.6667 32.5347 31.5069 32.8541 31.1875C33.1736 30.8681 33.3333 30.4722 33.3333 30C33.3333 29.5278 33.1736 29.1319 32.8541 28.8125C32.5347 28.4931 32.1389 28.3333 31.6666 28.3333H8.33331C7.86109 28.3333 7.46526 28.4931 7.14581 28.8125C6.82637 29.1319 6.66665 29.5278 6.66665 30C6.66665 30.4722 6.82637 30.8681 7.14581 31.1875C7.46526 31.5069 7.86109 31.6667 8.33331 31.6667ZM16.6666 21.6667C16.1944 21.6667 15.7986 21.5069 15.4791 21.1875C15.1597 20.8681 15 20.4722 15 20V6.66667C15 6.19444 15.1597 5.79861 15.4791 5.47917C15.7986 5.15972 16.1944 5 16.6666 5H30C30.4722 5 30.868 5.15972 31.1875 5.47917C31.5069 5.79861 31.6666 6.19444 31.6666 6.66667V20C31.6666 20.4722 31.5069 20.8681 31.1875 21.1875C30.868 21.5069 30.4722 21.6667 30 21.6667H16.6666ZM3.33331 18.25V15.0417H11.5416V18.25H3.33331ZM20 13.3333H26.6666V10.0417H20V13.3333ZM6.66665 13.3333H11.5416V10.0417H6.66665V13.3333Z" fill="white"/>
</g>
</svg>
