<svg width="50" height="50" viewBox="0 0 50 50" fill="none" xmlns="http://www.w3.org/2000/svg">
<mask id="mask0_2236_162" style="mask-type:alpha" maskUnits="userSpaceOnUse" x="0" y="0" width="50" height="50">
<rect width="50" height="50" fill="#D9D9D9"/>
</mask>
<g mask="url(#mask0_2236_162)">
<path d="M45.8334 12.4997V37.4997C45.8334 38.6455 45.4254 39.6264 44.6095 40.4424C43.7935 41.2584 42.8126 41.6663 41.6668 41.6663H8.33342C7.18758 41.6663 6.20668 41.2584 5.39071 40.4424C4.57473 39.6264 4.16675 38.6455 4.16675 37.4997V12.4997C4.16675 11.3538 4.57473 10.3729 5.39071 9.55697C6.20668 8.74099 7.18758 8.33301 8.33342 8.33301H41.6668C42.8126 8.33301 43.7935 8.74099 44.6095 9.55697C45.4254 10.3729 45.8334 11.3538 45.8334 12.4997ZM8.33342 16.6663H41.6668V12.4997H8.33342V16.6663ZM8.33342 24.9997V37.4997H41.6668V24.9997H8.33342Z" fill="#30107A"/>
</g>
</svg>
