<svg width="54" height="54" viewBox="0 0 54 54" fill="none" xmlns="http://www.w3.org/2000/svg">
<mask id="mask0_2124_216" style="mask-type:alpha" maskUnits="userSpaceOnUse" x="0" y="0" width="54" height="54">
<rect width="54" height="54" fill="#D9D9D9"/>
</mask>
<g mask="url(#mask0_2124_216)">
<path d="M27 49.5C23.025 49.5 19.7812 48.8719 17.2687 47.6156C14.7562 46.3594 13.5 44.7375 13.5 42.75C13.5 41.85 13.7719 41.0156 14.3156 40.2469C14.8594 39.4781 15.6187 38.8125 16.5938 38.25L20.1375 41.5688C19.8 41.7188 19.4344 41.8875 19.0406 42.075C18.6469 42.2625 18.3375 42.4875 18.1125 42.75C18.6 43.35 19.725 43.875 21.4875 44.325C23.25 44.775 25.0875 45 27 45C28.9125 45 30.7594 44.775 32.5406 44.325C34.3219 43.875 35.4563 43.35 35.9438 42.75C35.6813 42.45 35.3438 42.2063 34.9313 42.0188C34.5188 41.8313 34.125 41.6625 33.75 41.5125L37.2375 38.1375C38.2875 38.7375 39.0938 39.4219 39.6562 40.1906C40.2188 40.9594 40.5 41.8125 40.5 42.75C40.5 44.7375 39.2437 46.3594 36.7312 47.6156C34.2187 48.8719 30.975 49.5 27 49.5ZM27 42.75C21.7125 38.85 17.7656 35.0625 15.1594 31.3875C12.5531 27.7125 11.25 24.1125 11.25 20.5875C11.25 17.925 11.7281 15.5906 12.6844 13.5844C13.6406 11.5781 14.8688 9.9 16.3688 8.55C17.8688 7.2 19.5563 6.1875 21.4313 5.5125C23.3063 4.8375 25.1625 4.5 27 4.5C28.8375 4.5 30.6938 4.8375 32.5688 5.5125C34.4438 6.1875 36.1313 7.2 37.6313 8.55C39.1313 9.9 40.3594 11.5781 41.3156 13.5844C42.2719 15.5906 42.75 17.925 42.75 20.5875C42.75 24.1125 41.4469 27.7125 38.8406 31.3875C36.2344 35.0625 32.2875 38.85 27 42.75ZM27 24.75C28.2375 24.75 29.2969 24.3094 30.1781 23.4281C31.0594 22.5469 31.5 21.4875 31.5 20.25C31.5 19.0125 31.0594 17.9531 30.1781 17.0719C29.2969 16.1906 28.2375 15.75 27 15.75C25.7625 15.75 24.7031 16.1906 23.8219 17.0719C22.9406 17.9531 22.5 19.0125 22.5 20.25C22.5 21.4875 22.9406 22.5469 23.8219 23.4281C24.7031 24.3094 25.7625 24.75 27 24.75Z" fill="#30107A"/>
</g>
</svg>
