<svg width="40" height="40" viewBox="0 0 40 40" fill="none" xmlns="http://www.w3.org/2000/svg">
<mask id="mask0_2086_79" style="mask-type:alpha" maskUnits="userSpaceOnUse" x="0" y="0" width="40" height="40">
<rect width="40" height="40" fill="#D9D9D9"/>
</mask>
<g mask="url(#mask0_2086_79)">
<path d="M10 33.3327C8.61111 33.3327 7.43055 32.8466 6.45833 31.8743C5.48611 30.9021 5 29.7216 5 28.3327H1.66666V9.99935C1.66666 9.08268 1.99305 8.29796 2.64583 7.64518C3.29861 6.9924 4.08333 6.66602 5 6.66602H28.3333V13.3327H33.3333L38.3333 19.9993V28.3327H35C35 29.7216 34.5139 30.9021 33.5417 31.8743C32.5694 32.8466 31.3889 33.3327 30 33.3327C28.6111 33.3327 27.4306 32.8466 26.4583 31.8743C25.4861 30.9021 25 29.7216 25 28.3327H15C15 29.7216 14.5139 30.9021 13.5417 31.8743C12.5694 32.8466 11.3889 33.3327 10 33.3327ZM10 29.9993C10.4722 29.9993 10.8681 29.8396 11.1875 29.5202C11.5069 29.2007 11.6667 28.8049 11.6667 28.3327C11.6667 27.8605 11.5069 27.4646 11.1875 27.1452C10.8681 26.8257 10.4722 26.666 10 26.666C9.52778 26.666 9.13194 26.8257 8.8125 27.1452C8.49305 27.4646 8.33333 27.8605 8.33333 28.3327C8.33333 28.8049 8.49305 29.2007 8.8125 29.5202C9.13194 29.8396 9.52778 29.9993 10 29.9993ZM30 29.9993C30.4722 29.9993 30.8681 29.8396 31.1875 29.5202C31.5069 29.2007 31.6667 28.8049 31.6667 28.3327C31.6667 27.8605 31.5069 27.4646 31.1875 27.1452C30.8681 26.8257 30.4722 26.666 30 26.666C29.5278 26.666 29.1319 26.8257 28.8125 27.1452C28.4931 27.4646 28.3333 27.8605 28.3333 28.3327C28.3333 28.8049 28.4931 29.2007 28.8125 29.5202C29.1319 29.8396 29.5278 29.9993 30 29.9993ZM28.3333 21.666H35.4167L31.6667 16.666H28.3333V21.666Z" fill="white"/>
</g>
</svg>
