<svg width="40" height="40" viewBox="0 0 40 40" fill="none" xmlns="http://www.w3.org/2000/svg">
<mask id="mask0_1858_68" style="mask-type:alpha" maskUnits="userSpaceOnUse" x="0" y="0" width="40" height="40">
<rect width="40" height="40" fill="#D9D9D9"/>
</mask>
<g mask="url(#mask0_1858_68)">
<path d="M3.33337 31.6667V28.3333H20V31.6667H3.33337ZM3.33337 23.3333V20H11.6667V23.3333H3.33337ZM3.33337 15V11.6667H11.6667V15H3.33337ZM34.3334 31.6667L27.9167 25.25C27.25 25.7222 26.5209 26.0764 25.7292 26.3125C24.9375 26.5486 24.1389 26.6667 23.3334 26.6667C21.0278 26.6667 19.0625 25.8542 17.4375 24.2292C15.8125 22.6042 15 20.6389 15 18.3333C15 16.0278 15.8125 14.0625 17.4375 12.4375C19.0625 10.8125 21.0278 10 23.3334 10C25.6389 10 27.6042 10.8125 29.2292 12.4375C30.8542 14.0625 31.6667 16.0278 31.6667 18.3333C31.6667 19.1389 31.5487 19.9375 31.3125 20.7292C31.0764 21.5208 30.7223 22.25 30.25 22.9167L36.6667 29.3333L34.3334 31.6667ZM23.3334 23.3333C24.7223 23.3333 25.9028 22.8472 26.875 21.875C27.8473 20.9028 28.3334 19.7222 28.3334 18.3333C28.3334 16.9444 27.8473 15.7639 26.875 14.7917C25.9028 13.8194 24.7223 13.3333 23.3334 13.3333C21.9445 13.3333 20.7639 13.8194 19.7917 14.7917C18.8195 15.7639 18.3334 16.9444 18.3334 18.3333C18.3334 19.7222 18.8195 20.9028 19.7917 21.875C20.7639 22.8472 21.9445 23.3333 23.3334 23.3333Z" fill="white"/>
</g>
</svg>
