<svg width="50" height="50" viewBox="0 0 50 50" fill="none" xmlns="http://www.w3.org/2000/svg">
<path d="M37.2407 36.594C36.3966 36.5959 35.5606 36.4306 34.7807 36.1077C34.0008 35.7849 33.2926 35.3108 32.6969 34.7128L26.1344 28.1503C25.9021 27.9296 25.5939 27.8065 25.2735 27.8065C24.9531 27.8065 24.6449 27.9296 24.4125 28.1503L17.825 34.7378C17.2296 35.336 16.5214 35.8103 15.7415 36.1332C14.9616 36.4561 14.1254 36.6213 13.2813 36.619H11.9875L20.3 44.9315C22.8938 47.5253 27.1032 47.5253 29.6969 44.9315L38.0313 36.594H37.2407ZM13.2813 13.3815C15 13.3815 16.6125 14.0503 17.825 15.2628L24.4125 21.8503C24.5257 21.9637 24.6602 22.0536 24.8082 22.115C24.9562 22.1764 25.1148 22.208 25.2751 22.208C25.4353 22.208 25.5939 22.1764 25.7419 22.115C25.8899 22.0536 26.0244 21.9637 26.1376 21.8503L32.7 15.2878C33.2952 14.6899 34.0028 14.2158 34.7822 13.893C35.5615 13.5701 36.3971 13.4047 37.2407 13.4065H38.0313L29.6969 5.07217C28.4505 3.82662 26.7606 3.12695 24.9985 3.12695C23.2364 3.12695 21.5464 3.82662 20.3 5.07217L11.9875 13.3847L13.2813 13.3815Z" fill="#30107A"/>
<path d="M44.928 20.2996L39.8905 15.2621C39.7774 15.3085 39.6565 15.3329 39.5343 15.334H37.2437C36.0593 15.334 34.8999 15.8152 34.0655 16.6527L27.503 23.2152C27.2112 23.5086 26.8642 23.7414 26.4821 23.9003C26.1 24.0591 25.6903 24.1409 25.2765 24.1409C24.8626 24.1409 24.4529 24.0591 24.0708 23.9003C23.6887 23.7414 23.3417 23.5086 23.0499 23.2152L16.4624 16.6246C15.6172 15.7829 14.4739 15.309 13.2812 15.3059H10.4687C10.3521 15.3049 10.2366 15.2827 10.128 15.2402L5.07178 20.2996C2.47803 22.8934 2.47803 27.1027 5.07178 29.6996L10.128 34.7559C10.2354 34.7126 10.3498 34.6893 10.4655 34.6871H13.2812C14.4687 34.6871 15.6249 34.209 16.4624 33.3715L23.0468 26.7809C23.6476 26.2088 24.4453 25.8898 25.2749 25.8898C26.1045 25.8898 26.9022 26.2088 27.503 26.7809L34.0655 33.3434C34.8999 34.1809 36.0593 34.659 37.2437 34.659H39.5343C39.6593 34.659 39.7812 34.6902 39.8905 34.734L44.928 29.6965C47.5218 27.1027 47.5218 22.8934 44.928 20.2996Z" fill="#30107A"/>
</svg>
