<svg width="50" height="50" viewBox="0 0 50 50" fill="none" xmlns="http://www.w3.org/2000/svg">
<mask id="mask0_2236_199" style="mask-type:alpha" maskUnits="userSpaceOnUse" x="0" y="0" width="50" height="50">
<rect width="50" height="50" fill="#D9D9D9"/>
</mask>
<g mask="url(#mask0_2236_199)">
<path d="M12.4999 45.8337C11.3541 45.8337 10.3732 45.4257 9.55721 44.6097C8.74124 43.7937 8.33325 42.8128 8.33325 41.667V8.33366C8.33325 7.18783 8.74124 6.20692 9.55721 5.39095C10.3732 4.57498 11.3541 4.16699 12.4999 4.16699H29.1666L41.6666 16.667V41.667C41.6666 42.8128 41.2586 43.7937 40.4426 44.6097C39.6267 45.4257 38.6458 45.8337 37.4999 45.8337H12.4999ZM22.9166 39.5837H27.0833V37.5003H29.1666C29.7569 37.5003 30.2517 37.3007 30.651 36.9014C31.0503 36.5021 31.2499 36.0073 31.2499 35.417V29.167C31.2499 28.5767 31.0503 28.0819 30.651 27.6826C30.2517 27.2833 29.7569 27.0837 29.1666 27.0837H22.9166V25.0003H31.2499V20.8337H27.0833V18.7503H22.9166V20.8337H20.8333C20.243 20.8337 19.7482 21.0333 19.3489 21.4326C18.9496 21.8319 18.7499 22.3267 18.7499 22.917V29.167C18.7499 29.7573 18.9496 30.2521 19.3489 30.6514C19.7482 31.0507 20.243 31.2503 20.8333 31.2503H27.0833V33.3337H18.7499V37.5003H22.9166V39.5837ZM27.4478 16.667H35.7812L27.4478 8.33366V16.667Z" fill="#30107A"/>
</g>
</svg>
